<?xml version="1.0" encoding="UTF-8"?>
<svg width="1200pt" height="1200pt" version="1.1" viewBox="0 0 1200 1200" xmlns="http://www.w3.org/2000/svg">
 <path d="m968.43 574.86h-308.74l-325.26-0.058594 161.06-161c16.273-16.246 16.273-42.637 0-58.883-16.246-16.297-42.613-16.297-58.883 0l-232.12 232.11c-1.957 1.9336-3.6953 4.0781-5.207 6.3359-0.63672 0.9375-1.043 1.9805-1.6328 2.9141-0.74219 1.4023-1.5977 2.7461-2.207 4.2461-0.51562 1.2461-0.79297 2.5312-1.1523 3.7422-0.42188 1.3789-0.9375 2.6758-1.2227 4.0781-0.43359 2.1016-0.61328 4.2969-0.66016 6.4453 0 0.55078-0.16797 1.1055-0.16797 1.6562 0 0.67188 0.16797 1.2617 0.19141 1.9336 0.085937 2.0625 0.22656 4.1289 0.63672 6.2031 0.32422 1.5117 0.82813 2.8555 1.2617 4.3086 0.32422 1.1641 0.61328 2.3398 1.1055 3.4453 0.67188 1.6328 1.5469 3.1445 2.3984 4.6328 0.46875 0.85156 0.85156 1.7383 1.3672 2.5664 1.5703 2.3047 3.3008 4.4883 5.293 6.4453l232.05 232.05c8.125 8.125 18.805 12.227 29.473 12.227 10.656 0 21.277-4.0664 29.438-12.227 16.273-16.246 16.273-42.637 0-58.883l-160.97-161.04h325.2v-0.25391h308.75c28.055 0 50.832-18.602 50.832-41.508 0.003906-22.906-22.785-41.496-50.84-41.496z" fill="#fff"/>
</svg>
