<?xml version="1.0" encoding="UTF-8"?>
<svg width="1200pt" height="1200pt" version="1.1" viewBox="0 0 1200 1200" xmlns="http://www.w3.org/2000/svg">
 <defs>
  <clipPath id="c">
   <path d="m222.14 222.14h126.86v126.86h-126.86z"/>
  </clipPath>
  <clipPath id="b">
   <path d="m902 360h75.859v77h-75.859z"/>
  </clipPath>
  <clipPath id="a">
   <path d="m360 222.14h505v755.71h-505z"/>
  </clipPath>
 </defs>
 <g clip-path="url(#c)">
  <path d="m285.12 297.75c-3.5898-4.7734-7.8594-9.043-12.633-12.633 4.7734-3.5898 9.043-7.8477 12.633-12.633 3.5898 4.7852 7.8594 9.043 12.633 12.633-4.7734 3.5898-9.043 7.8594-12.633 12.633m50.379-25.23c-20.832 0-37.785-16.953-37.785-37.785 0-6.9531-5.6406-12.594-12.594-12.594s-12.594 5.6406-12.594 12.594c0 20.832-16.953 37.785-37.789 37.785-6.9492 0-12.594 5.6445-12.594 12.598 0 6.9492 5.6445 12.594 12.594 12.594 20.836 0 37.789 16.953 37.789 37.785 0 6.9531 5.6406 12.594 12.594 12.594s12.594-5.6406 12.594-12.594c0-20.832 16.953-37.785 37.785-37.785 6.9531 0 12.598-5.6445 12.598-12.594 0-6.9531-5.6445-12.598-12.598-12.598" fill="#fff" fill-rule="evenodd"/>
 </g>
 <g clip-path="url(#b)">
  <path d="m965.26 385.88h-12.594v-12.594c0-6.9531-5.6406-12.598-12.594-12.598s-12.598 5.6445-12.598 12.598v12.594h-12.594c-6.9531 0-12.594 5.6406-12.594 12.594 0 6.9531 5.6406 12.598 12.594 12.598h12.594v12.594c0 6.9531 5.6445 12.594 12.598 12.594s12.594-5.6406 12.594-12.594v-12.594h12.594c6.9531 0 12.598-5.6445 12.598-12.598 0-6.9531-5.6445-12.594-12.598-12.594" fill="#fff" fill-rule="evenodd"/>
 </g>
 <path d="m445.17 855.6c-4.9258-4.9258-12.883-4.9258-17.809 0l-16.285 16.285-16.285-16.285c-4.9258-4.9258-12.887-4.9258-17.812 0-4.9219 4.9258-4.9219 12.883 0 17.809l16.285 16.285-16.285 16.285c-4.9219 4.9258-4.9219 12.887 0 17.812 2.457 2.4531 5.6836 3.6875 8.9062 3.6875 3.2227 0 6.4492-1.2344 8.9062-3.6875l16.285-16.289 16.285 16.289c2.457 2.4531 5.6797 3.6875 8.9023 3.6875 3.2266 0 6.4492-1.2344 8.9062-3.6875 4.9258-4.9258 4.9258-12.887 0-17.812l-16.285-16.285 16.285-16.285c4.9258-4.9258 4.9258-12.883 0-17.809" fill="#fff" fill-rule="evenodd"/>
 <path d="m814.12 801.53c-6.9531 0-12.594 5.6406-12.594 12.594s5.6406 12.594 12.594 12.594 12.594-5.6406 12.594-12.594-5.6406-12.594-12.594-12.594" fill="#fff" fill-rule="evenodd"/>
 <path d="m952.67 940.07c-6.9531 0-12.594 5.6406-12.594 12.594s5.6406 12.594 12.594 12.594 12.594-5.6406 12.594-12.594-5.6406-12.594-12.594-12.594" fill="#fff" fill-rule="evenodd"/>
 <path d="m335.5 713.36c-6.9492 0-12.594 5.6406-12.594 12.594s5.6445 12.598 12.594 12.598c6.9531 0 12.598-5.6445 12.598-12.598s-5.6445-12.594-12.598-12.594" fill="#fff" fill-rule="evenodd"/>
 <g clip-path="url(#a)">
  <path d="m801.53 499.24c0.011718 67.5-29.965 132.35-80.184 173.48-2.3438 1.9258-5.1641 2.8594-7.9844 2.8594-3.6406 0-7.2539-1.5742-9.7383-4.6094-4.418-5.3789-3.625-13.328 1.7539-17.723 44.445-36.402 70.973-93.973 70.961-154 0-6.9492 5.6406-12.594 12.594-12.594 6.9531 0 12.598 5.6445 12.598 12.594zm-121.16 200.58c-20.605 8.4766-45.922 13.539-67.738 13.539h-0.035156c-6.9648 0-12.598-5.6445-12.598-12.598 0-6.9492 5.6445-12.594 12.598-12.594h0.035156c18.707 0 40.434-4.3594 58.141-11.648 6.4102-2.6602 13.793 0.40234 16.449 6.8516 2.6445 6.4336-0.41406 13.789-6.8516 16.449zm-155.93-364.32c-4.207 0-8.2969-2.1016-10.691-5.918-3.6914-5.8945-1.9023-13.664 4.0039-17.355 27.145-16.965 62.586-27.105 94.844-27.105 6.9531 0 12.594 5.6406 12.594 12.594s-5.6406 12.598-12.594 12.598c-27.309 0-58.531 8.918-81.492 23.273-2.0781 1.2969-4.3828 1.9141-6.6641 1.9141zm-25.227 27.609c-31.98 35.43-50.332 85.043-50.355 136.13 0 6.9648-5.6445 12.598-12.598 12.598-6.9648 0-12.594-5.6445-12.594-12.598 0.027343-57.242 20.746-113.02 56.844-152.99 4.6602-5.1758 12.621-5.5938 17.785-0.92188 5.1641 4.6602 5.5781 12.633 0.91797 17.785zm113.38-140.96c-138.9 0-251.91 124.3-251.91 277.09 0 133.82 86.68 245.77 201.52 271.52v43.367c0 6.9531 5.6445 12.594 12.598 12.594h25.188v50.383c0 20.832 16.953 37.785 37.789 37.785 6.9375 0 12.594 5.6562 12.594 12.594v12.598c0 6.9375-5.6562 12.594-12.594 12.594-6.9531 0-12.598 5.6445-12.598 12.594 0 6.9531 5.6445 12.598 12.598 12.598 20.832 0 37.785-16.953 37.785-37.785v-12.598c0-20.832-16.953-37.785-37.785-37.785-6.9414 0-12.598-5.6562-12.598-12.594v-50.383h25.191c6.9531 0 12.594-5.6406 12.594-12.594v-43.367c114.84-25.742 201.52-137.69 201.52-271.52 0-152.79-113-277.09-251.9-277.09z" fill="#fff" fill-rule="evenodd"/>
 </g>
</svg>
