<?xml version="1.0" encoding="UTF-8"?>
<svg width="1200pt" height="1200pt" version="1.1" viewBox="0 0 1200 1200" xmlns="http://www.w3.org/2000/svg">
 <g fill="#fff" fill-rule="evenodd">
  <path d="m395.33 555.92c0-9.1797-3.6523-17.996-10.137-24.496-6.5039-6.4883-15.32-10.141-24.5-10.141h-25.191c-9.1758 0-17.992 3.6523-24.496 10.141-6.4883 6.5-10.141 15.316-10.141 24.496v25.191c0 9.1797 3.6523 17.996 10.141 24.496 6.5039 6.4883 15.32 10.141 24.496 10.141h25.191c9.1797 0 17.996-3.6523 24.5-10.141 6.4844-6.5 10.137-15.316 10.137-24.496zm-31.488 0v25.191c0 0.83203-0.32812 1.6367-0.92969 2.2188-0.58203 0.59766-1.3828 0.92969-2.2188 0.92969h-25.191c-0.83203 0-1.6367-0.33203-2.2188-0.92969-0.59766-0.58203-0.92969-1.3867-0.92969-2.2188v-25.191c0-0.83594 0.33203-1.6367 0.92969-2.2188 0.58203-0.59766 1.3867-0.92969 2.2188-0.92969h25.191c0.83594 0 1.6367 0.33203 2.2188 0.92969 0.60156 0.58203 0.92969 1.3828 0.92969 2.2188z"/>
  <path d="m395.33 681.87c0-9.1797-3.6523-17.996-10.137-24.5-6.5039-6.4844-15.32-10.137-24.5-10.137h-25.191c-9.1758 0-17.992 3.6523-24.496 10.137-6.4883 6.5039-10.141 15.32-10.141 24.5v25.191c0 9.1758 3.6523 17.996 10.141 24.496 6.5039 6.4883 15.32 10.141 24.496 10.141h25.191c9.1797 0 17.996-3.6523 24.5-10.141 6.4844-6.5 10.137-15.32 10.137-24.496zm-31.488 0v25.191c0 0.83203-0.32812 1.6367-0.92969 2.2188-0.58203 0.59766-1.3828 0.92969-2.2188 0.92969h-25.191c-0.83203 0-1.6367-0.33203-2.2188-0.92969-0.59766-0.58203-0.92969-1.3867-0.92969-2.2188v-25.191c0-0.83594 0.33203-1.6367 0.92969-2.2188 0.58203-0.60156 1.3867-0.92969 2.2188-0.92969h25.191c0.83594 0 1.6367 0.32812 2.2188 0.92969 0.60156 0.58203 0.92969 1.3828 0.92969 2.2188z"/>
  <path d="m521.28 555.92c0-9.1797-3.6523-17.996-10.141-24.496-6.5-6.4883-15.316-10.141-24.496-10.141h-25.191c-9.1797 0-17.996 3.6523-24.496 10.141-6.4883 6.5-10.141 15.316-10.141 24.496v25.191c0 9.1797 3.6523 17.996 10.141 24.496 6.5 6.4883 15.316 10.141 24.496 10.141h25.191c9.1797 0 17.996-3.6523 24.496-10.141 6.4883-6.5 10.141-15.316 10.141-24.496zm-31.488 0v25.191c0 0.83203-0.33203 1.6367-0.92969 2.2188-0.58203 0.59766-1.3828 0.92969-2.2188 0.92969h-25.191c-0.83203 0-1.6367-0.33203-2.2188-0.92969-0.59766-0.58203-0.92969-1.3867-0.92969-2.2188v-25.191c0-0.83594 0.33203-1.6367 0.92969-2.2188 0.58203-0.59766 1.3867-0.92969 2.2188-0.92969h25.191c0.83594 0 1.6367 0.33203 2.2188 0.92969 0.59766 0.58203 0.92969 1.3828 0.92969 2.2188z"/>
  <path d="m521.28 681.87c0-9.1797-3.6523-17.996-10.141-24.5-6.5-6.4844-15.316-10.137-24.496-10.137h-25.191c-9.1797 0-17.996 3.6523-24.496 10.137-6.4883 6.5039-10.141 15.32-10.141 24.5v25.191c0 9.1758 3.6523 17.996 10.141 24.496 6.5 6.4883 15.316 10.141 24.496 10.141h25.191c9.1797 0 17.996-3.6523 24.496-10.141 6.4883-6.5 10.141-15.32 10.141-24.496zm-31.488 0v25.191c0 0.83203-0.33203 1.6367-0.92969 2.2188-0.58203 0.59766-1.3828 0.92969-2.2188 0.92969h-25.191c-0.83203 0-1.6367-0.33203-2.2188-0.92969-0.59766-0.58203-0.92969-1.3867-0.92969-2.2188v-25.191c0-0.83594 0.33203-1.6367 0.92969-2.2188 0.58203-0.60156 1.3867-0.92969 2.2188-0.92969h25.191c0.83594 0 1.6367 0.32812 2.2188 0.92969 0.59766 0.58203 0.92969 1.3828 0.92969 2.2188z"/>
  <path d="m395.33 807.82c0-9.1797-3.6523-17.996-10.137-24.5-6.5039-6.4844-15.32-10.137-24.5-10.137h-25.191c-9.1758 0-17.992 3.6523-24.496 10.137-6.4883 6.5039-10.141 15.32-10.141 24.5v25.188c0 9.1797 3.6523 17.996 10.141 24.5 6.5039 6.4844 15.32 10.141 24.496 10.141h25.191c9.1797 0 17.996-3.6562 24.5-10.141 6.4844-6.5039 10.137-15.32 10.137-24.5zm-31.488 0v25.188c0 0.83594-0.32812 1.6406-0.92969 2.2227-0.58203 0.59766-1.3828 0.92969-2.2188 0.92969h-25.191c-0.83203 0-1.6367-0.33203-2.2188-0.92969-0.59766-0.58203-0.92969-1.3867-0.92969-2.2227v-25.188c0-0.83594 0.33203-1.6367 0.92969-2.2227 0.58203-0.59766 1.3867-0.92578 2.2188-0.92578h25.191c0.83594 0 1.6367 0.32812 2.2188 0.92578 0.60156 0.58594 0.92969 1.3867 0.92969 2.2227z"/>
  <path d="m647.23 555.92c0-9.1797-3.6523-17.996-10.141-24.496-6.5-6.4883-15.316-10.141-24.496-10.141h-25.191c-9.1797 0-17.996 3.6523-24.496 10.141-6.4883 6.5-10.141 15.316-10.141 24.496v25.191c0 9.1797 3.6523 17.996 10.141 24.496 6.5 6.4883 15.316 10.141 24.496 10.141h25.191c9.1797 0 17.996-3.6523 24.496-10.141 6.4883-6.5 10.141-15.316 10.141-24.496zm-31.488 0v25.191c0 0.83203-0.33203 1.6367-0.92969 2.2188-0.58203 0.59766-1.3867 0.92969-2.2188 0.92969h-25.191c-0.83594 0-1.6367-0.33203-2.2188-0.92969-0.59766-0.58203-0.92969-1.3867-0.92969-2.2188v-25.191c0-0.83594 0.33203-1.6367 0.92969-2.2188 0.58203-0.59766 1.3828-0.92969 2.2188-0.92969h25.191c0.83203 0 1.6367 0.33203 2.2188 0.92969 0.59766 0.58203 0.92969 1.3828 0.92969 2.2188z"/>
  <path d="m647.23 681.87c0-9.1797-3.6523-17.996-10.141-24.5-6.5-6.4844-15.316-10.137-24.496-10.137h-25.191c-9.1797 0-17.996 3.6523-24.496 10.137-6.4883 6.5039-10.141 15.32-10.141 24.5v25.191c0 9.1758 3.6523 17.996 10.141 24.496 6.5 6.4883 15.316 10.141 24.496 10.141h25.191c9.1797 0 17.996-3.6523 24.496-10.141 6.4883-6.5 10.141-15.32 10.141-24.496zm-31.488 0v25.191c0 0.83203-0.33203 1.6367-0.92969 2.2188-0.58203 0.59766-1.3867 0.92969-2.2188 0.92969h-25.191c-0.83594 0-1.6367-0.33203-2.2188-0.92969-0.59766-0.58203-0.92969-1.3867-0.92969-2.2188v-25.191c0-0.83594 0.33203-1.6367 0.92969-2.2188 0.58203-0.60156 1.3828-0.92969 2.2188-0.92969h25.191c0.83203 0 1.6367 0.32812 2.2188 0.92969 0.59766 0.58203 0.92969 1.3828 0.92969 2.2188z"/>
  <path d="m521.28 807.82c0-9.1797-3.6523-17.996-10.141-24.5-6.5-6.4844-15.316-10.137-24.496-10.137h-25.191c-9.1797 0-17.996 3.6523-24.496 10.137-6.4883 6.5039-10.141 15.32-10.141 24.5v25.188c0 9.1797 3.6523 17.996 10.141 24.5 6.5 6.4844 15.316 10.141 24.496 10.141h25.191c9.1797 0 17.996-3.6562 24.496-10.141 6.4883-6.5039 10.141-15.32 10.141-24.5zm-31.488 0v25.188c0 0.83594-0.33203 1.6406-0.92969 2.2227-0.58203 0.59766-1.3828 0.92969-2.2188 0.92969h-25.191c-0.83203 0-1.6367-0.33203-2.2188-0.92969-0.59766-0.58203-0.92969-1.3867-0.92969-2.2227v-25.188c0-0.83594 0.33203-1.6367 0.92969-2.2227 0.58203-0.59766 1.3867-0.92578 2.2188-0.92578h25.191c0.83594 0 1.6367 0.32812 2.2188 0.92578 0.59766 0.58594 0.92969 1.3867 0.92969 2.2227z"/>
  <path d="m773.19 555.92c0-9.1797-3.6523-17.996-10.141-24.496-6.5039-6.4883-15.32-10.141-24.496-10.141h-25.191c-9.1797 0-17.996 3.6523-24.5 10.141-6.4844 6.5-10.137 15.316-10.137 24.496v25.191c0 9.1797 3.6523 17.996 10.137 24.496 6.5039 6.4883 15.32 10.141 24.5 10.141h25.191c9.1758 0 17.992-3.6523 24.496-10.141 6.4883-6.5 10.141-15.316 10.141-24.496zm-31.488 0v25.191c0 0.83203-0.33203 1.6367-0.92969 2.2188-0.58203 0.59766-1.3867 0.92969-2.2188 0.92969h-25.191c-0.83594 0-1.6367-0.33203-2.2188-0.92969-0.60156-0.58203-0.92969-1.3867-0.92969-2.2188v-25.191c0-0.83594 0.32812-1.6367 0.92969-2.2188 0.58203-0.59766 1.3828-0.92969 2.2188-0.92969h25.191c0.83203 0 1.6367 0.33203 2.2188 0.92969 0.59766 0.58203 0.92969 1.3828 0.92969 2.2188z"/>
  <path d="m773.19 681.87c0-9.1797-3.6523-17.996-10.141-24.5-6.5039-6.4844-15.32-10.137-24.496-10.137h-25.191c-9.1797 0-17.996 3.6523-24.5 10.137-6.4844 6.5039-10.137 15.32-10.137 24.5v25.191c0 9.1758 3.6523 17.996 10.137 24.496 6.5039 6.4883 15.32 10.141 24.5 10.141h25.191c9.1758 0 17.992-3.6523 24.496-10.141 6.4883-6.5 10.141-15.32 10.141-24.496zm-31.488 0v25.191c0 0.83203-0.33203 1.6367-0.92969 2.2188-0.58203 0.59766-1.3867 0.92969-2.2188 0.92969h-25.191c-0.83594 0-1.6367-0.33203-2.2188-0.92969-0.60156-0.58203-0.92969-1.3867-0.92969-2.2188v-25.191c0-0.83594 0.32812-1.6367 0.92969-2.2188 0.58203-0.60156 1.3828-0.92969 2.2188-0.92969h25.191c0.83203 0 1.6367 0.32812 2.2188 0.92969 0.59766 0.58203 0.92969 1.3828 0.92969 2.2188z"/>
  <path d="m647.23 807.82c0-9.1797-3.6523-17.996-10.141-24.5-6.5-6.4844-15.316-10.137-24.496-10.137h-25.191c-9.1797 0-17.996 3.6523-24.496 10.137-6.4883 6.5039-10.141 15.32-10.141 24.5v25.188c0 9.1797 3.6523 17.996 10.141 24.5 6.5 6.4844 15.316 10.141 24.496 10.141h25.191c9.1797 0 17.996-3.6562 24.496-10.141 6.4883-6.5039 10.141-15.32 10.141-24.5zm-31.488 0v25.188c0 0.83594-0.33203 1.6406-0.92969 2.2227-0.58203 0.59766-1.3867 0.92969-2.2188 0.92969h-25.191c-0.83594 0-1.6367-0.33203-2.2188-0.92969-0.59766-0.58203-0.92969-1.3867-0.92969-2.2227v-25.188c0-0.83594 0.33203-1.6367 0.92969-2.2227 0.58203-0.59766 1.3828-0.92578 2.2188-0.92578h25.191c0.83203 0 1.6367 0.32812 2.2188 0.92578 0.59766 0.58594 0.92969 1.3867 0.92969 2.2227z"/>
  <path d="m899.14 681.87c0-9.1797-3.6523-17.996-10.137-24.5-6.5039-6.4844-15.32-10.137-24.5-10.137h-25.188c-9.1797 0-17.996 3.6523-24.5 10.137-6.4844 6.5039-10.137 15.32-10.137 24.5v25.191c0 9.1758 3.6523 17.996 10.137 24.496 6.5039 6.4883 15.32 10.141 24.5 10.141h25.188c9.1797 0 17.996-3.6523 24.5-10.141 6.4844-6.5 10.137-15.32 10.137-24.496zm-31.484 0v25.191c0 0.83203-0.33203 1.6367-0.92969 2.2188-0.58203 0.59766-1.3867 0.92969-2.2227 0.92969h-25.188c-0.83594 0-1.6406-0.33203-2.2227-0.92969-0.59766-0.58203-0.92578-1.3867-0.92578-2.2188v-25.191c0-0.83594 0.32813-1.6367 0.92578-2.2188 0.58203-0.60156 1.3867-0.92969 2.2227-0.92969h25.188c0.83594 0 1.6406 0.32812 2.2227 0.92969 0.59766 0.58203 0.92969 1.3828 0.92969 2.2188z"/>
  <path d="m899.14 555.92c0-9.1797-3.6523-17.996-10.137-24.496-6.5039-6.4883-15.32-10.141-24.5-10.141h-25.188c-9.1797 0-17.996 3.6523-24.5 10.141-6.4844 6.5-10.137 15.316-10.137 24.496v25.191c0 9.1797 3.6523 17.996 10.137 24.496 6.5039 6.4883 15.32 10.141 24.5 10.141h25.188c9.1797 0 17.996-3.6523 24.5-10.141 6.4844-6.5 10.137-15.316 10.137-24.496zm-31.484 0v25.191c0 0.83203-0.33203 1.6367-0.92969 2.2188-0.58203 0.59766-1.3867 0.92969-2.2227 0.92969h-25.188c-0.83594 0-1.6406-0.33203-2.2227-0.92969-0.59766-0.58203-0.92578-1.3867-0.92578-2.2188v-25.191c0-0.83594 0.32813-1.6367 0.92578-2.2188 0.58203-0.59766 1.3867-0.92969 2.2227-0.92969h25.188c0.83594 0 1.6406 0.33203 2.2227 0.92969 0.59766 0.58203 0.92969 1.3828 0.92969 2.2188z"/>
  <path d="m773.19 807.82c0-9.1797-3.6523-17.996-10.141-24.5-6.5039-6.4844-15.32-10.137-24.496-10.137h-25.191c-9.1797 0-17.996 3.6523-24.5 10.137-6.4844 6.5039-10.137 15.32-10.137 24.5v25.188c0 9.1797 3.6523 17.996 10.137 24.5 6.5039 6.4844 15.32 10.141 24.5 10.141h25.191c9.1758 0 17.992-3.6562 24.496-10.141 6.4883-6.5039 10.141-15.32 10.141-24.5zm-31.488 0v25.188c0 0.83594-0.33203 1.6406-0.92969 2.2227-0.58203 0.59766-1.3867 0.92969-2.2188 0.92969h-25.191c-0.83594 0-1.6367-0.33203-2.2188-0.92969-0.60156-0.58203-0.92969-1.3867-0.92969-2.2227v-25.188c0-0.83594 0.32812-1.6367 0.92969-2.2227 0.58203-0.59766 1.3828-0.92578 2.2188-0.92578h25.191c0.83203 0 1.6367 0.32812 2.2188 0.92578 0.59766 0.58594 0.92969 1.3867 0.92969 2.2227z"/>
  <path d="m363.84 300.86v-28.336c0-9.1797 3.6523-17.996 10.141-24.5 6.5-6.4844 15.32-10.141 24.496-10.141h25.191c9.1797 0 17.996 3.6562 24.5 10.141 6.4844 6.5039 10.137 15.32 10.137 24.5v28.336h283.39v-28.336c0-9.1797 3.6523-17.996 10.137-24.5 6.5039-6.4844 15.32-10.141 24.5-10.141h25.191c9.1758 0 17.992 3.6562 24.496 10.141 6.4883 6.5039 10.141 15.32 10.141 24.5v28.336h47.23c20.875 0 40.902 8.2969 55.672 23.051 14.75 14.77 23.047 34.793 23.047 55.672v503.81c0 20.875-8.2969 40.902-23.047 55.672-14.77 14.75-34.797 23.047-55.672 23.047h-566.79c-20.879 0-40.902-8.2969-55.672-23.047-14.75-14.77-23.051-34.797-23.051-55.672v-503.81c0-20.879 8.3008-40.902 23.051-55.672 14.77-14.754 34.793-23.051 55.672-23.051zm566.79 157.44v425.09c0 12.531-4.9727 24.547-13.836 33.395-8.8477 8.8633-20.863 13.836-33.395 13.836h-566.79c-12.531 0-24.547-4.9727-33.395-13.836-8.8633-8.8477-13.84-20.863-13.84-33.395v-425.09zm-566.79-125.95h-47.23c-12.531 0-24.547 4.9766-33.395 13.84-8.8633 8.8477-13.84 20.863-13.84 33.395v47.23h661.25v-47.23c0-12.531-4.9727-24.547-13.836-33.395-8.8477-8.8633-20.863-13.84-33.395-13.84h-47.23v28.34c0 9.1797-3.6523 17.996-10.141 24.5-6.5039 6.4844-15.32 10.137-24.496 10.137h-25.191c-9.1797 0-17.996-3.6523-24.5-10.137-6.4844-6.5039-10.137-15.32-10.137-24.5v-28.34h-283.39v28.34c0 9.1797-3.6523 17.996-10.137 24.5-6.5039 6.4844-15.32 10.137-24.5 10.137h-25.191c-9.1758 0-17.996-3.6523-24.496-10.137-6.4883-6.5039-10.141-15.32-10.141-24.5zm62.977-59.824v88.164c0 0.83594-0.32812 1.6367-0.92969 2.2188-0.58203 0.60156-1.3828 0.92969-2.2188 0.92969h-25.191c-0.83203 0-1.6367-0.32812-2.2188-0.92969-0.59766-0.58203-0.92969-1.3828-0.92969-2.2188v-88.164c0-0.83594 0.33203-1.6406 0.92969-2.2227 0.58203-0.59766 1.3867-0.92969 2.2188-0.92969h25.191c0.83594 0 1.6367 0.33203 2.2188 0.92969 0.60156 0.58203 0.92969 1.3867 0.92969 2.2227zm377.86 0v88.164c0 0.83594-0.33203 1.6367-0.92969 2.2188-0.58203 0.60156-1.3867 0.92969-2.2188 0.92969h-25.191c-0.83594 0-1.6367-0.32812-2.2227-0.92969-0.59766-0.58203-0.92578-1.3828-0.92578-2.2188v-88.164c0-0.83594 0.32812-1.6406 0.92578-2.2227 0.58594-0.59766 1.3867-0.92969 2.2227-0.92969h25.191c0.83203 0 1.6367 0.33203 2.2188 0.92969 0.59766 0.58203 0.92969 1.3867 0.92969 2.2227z"/>
 </g>
</svg>
