<?xml version="1.0" encoding="UTF-8"?>
<svg width="1200pt" height="1200pt" version="1.1" viewBox="0 0 1200 1200" xmlns="http://www.w3.org/2000/svg">
 <path d="m600 367.76c128.26 0 232.24 103.98 232.24 232.24s-103.98 232.24-232.24 232.24-232.24-103.98-232.24-232.24 103.98-232.24 232.24-232.24zm-475.25 32.051c-7.9883 13.836-5.5234 30.824 6.0742 41.812l91.051 86.324c-4.4258 23.336-6.7617 47.414-6.7617 72.051 0 24.625 2.3359 48.699 6.7617 72.051l-91.051 86.324c-11.586 10.988-14.062 27.977-6.0742 41.812 23.523 40.738 40.738 70.562 64.262 111.31 7.9883 13.836 23.926 20.188 39.25 15.648l120.34-35.699c36.301 31.336 78.523 56 124.75 72.102l29.227 121.98c3.7266 15.539 17.199 26.164 33.176 26.164h128.52c15.977 0 29.449-10.625 33.176-26.164l29.227-121.98c46.227-16.113 88.449-40.762 124.75-72.102l120.34 35.699c15.312 4.5508 31.262-1.8125 39.25-15.648 23.523-40.738 40.738-70.562 64.262-111.31 7.9883-13.836 5.5234-30.824-6.0742-41.812l-91.051-86.324c4.4258-23.336 6.7617-47.414 6.7617-72.051 0-24.625-2.3359-48.699-6.7617-72.051l91.051-86.324c11.586-10.988 14.062-27.977 6.0742-41.812-23.523-40.75-40.738-70.562-64.262-111.31-7.9883-13.836-23.926-20.188-39.25-15.648l-120.34 35.699c-36.301-31.336-78.523-56-124.75-72.102l-29.227-121.98c-3.7266-15.539-17.199-26.164-33.176-26.164h-128.52c-15.977 0-29.449 10.625-33.176 26.164l-29.227 121.98c-46.227 16.113-88.449 40.762-124.75 72.102l-120.34-35.699c-15.312-4.5508-31.262 1.8125-39.25 15.648-23.523 40.75-40.738 70.574-64.262 111.31z" fill="#fff" fill-rule="evenodd"/>
</svg>
