<?xml version="1.0" encoding="UTF-8"?>
<svg width="1200pt" height="1200pt" version="1.1" viewBox="0 0 1200 1200" xmlns="http://www.w3.org/2000/svg">
 <g fill="#fff">
  <path d="m360 984h480c38.191 0 74.816-15.172 101.82-42.176 27.004-27.008 42.176-63.633 42.176-101.82v-315.84c0.011719-52.176-26.062-100.9-69.48-129.84l-228-152.04c-25.621-17.078-55.727-26.191-86.52-26.191s-60.898 9.1133-86.52 26.191l-228 152.04c-43.418 28.938-69.492 77.664-69.48 129.84v315.84c0 38.191 15.172 74.816 42.176 101.82 27.008 27.004 63.633 42.176 101.82 42.176zm-48-459.84c0.011719-20.066 10.055-38.801 26.762-49.922l228-152.04c9.8594-6.5781 21.445-10.09 33.297-10.09 11.855 0 23.441 3.5117 33.301 10.09l228 152.04c16.66 11.148 26.656 29.875 26.641 49.922v315.84c0 12.73-5.0586 24.938-14.059 33.941-9.0039 9-21.211 14.059-33.941 14.059h-480c-12.73 0-24.938-5.0586-33.941-14.059-9-9.0039-14.059-21.211-14.059-33.941z"/>
  <path d="m569.52 769.8c8.707 6.7422 19.406 10.402 30.422 10.402 11.012 0 21.711-3.6602 30.418-10.402 42.359-32.641 113.64-95.16 113.64-145.8 0.039062-22.422-10.371-43.586-28.16-57.238-17.789-13.652-40.922-18.238-62.57-12.406-21.652 5.8359-39.348 21.422-47.871 42.164-0.83594 2.2578-2.9922 3.7578-5.3984 3.7578s-4.5625-1.5-5.3984-3.7578c-8.5234-20.742-26.219-36.328-47.871-42.164-21.648-5.832-44.781-1.2461-62.57 12.406-17.789 13.652-28.199 34.816-28.16 57.238 0 50.641 71.281 113.16 113.52 145.8z"/>
 </g>
</svg>
