<?xml version="1.0" encoding="UTF-8"?>
<svg width="1200pt" height="1200pt" version="1.1" viewBox="0 0 1200 1200" xmlns="http://www.w3.org/2000/svg">
 <path d="m600 269.38c147.73 0 267.65 119.93 267.65 267.65 0 77.742-41.426 156.64-91.883 223-73.871 97.156-166.23 167.39-166.23 167.39h-0.015625c-5.6211 4.2852-13.43 4.2852-19.051 0h-0.015624s-92.355-70.234-166.23-167.39c-50.457-66.359-91.883-145.25-91.883-223 0-147.73 119.92-267.65 267.65-267.65zm0 157.44c-60.816 0-110.21 49.391-110.21 110.21 0 60.816 49.391 110.21 110.21 110.21 60.82 0 110.21-49.391 110.21-110.21 0-60.82-49.391-110.21-110.21-110.21z" fill="#fff" fill-rule="evenodd"/>
</svg>
