<?xml version="1.0" encoding="UTF-8"?>
<svg width="1200pt" height="1200pt" version="1.1" viewBox="0 0 1200 1200" xmlns="http://www.w3.org/2000/svg">
 <path d="m597.48 90c-143.66 0-260.21 116.3-260.21 259.75v139.1h-38.086c-59.289 0-108.11 48.547-108.11 107.81v405.53c0 59.266 48.816 107.81 108.11 107.81h601.88c59.289 0 107.87-48.547 107.87-107.81v-405.53c0-59.266-48.582-107.81-107.87-107.81h-43.184v-139.1c0-143.45-116.73-259.75-260.39-259.75zm0 60c111.52 0 200.39 88.574 200.39 199.75v139.1h-400.61v-139.1c0-111.17 88.688-199.75 200.21-199.75zm-298.3 398.85h601.88c27.156 0 47.871 20.82 47.871 47.812v405.53c0 26.992-20.715 47.812-47.871 47.812h-601.88c-27.156 0-48.105-20.82-48.105-47.812v-405.53c0-26.992 20.949-47.812 48.105-47.812zm300.94 106.29c-57.391 0-104.77 47.16-104.77 104.53 0 46.934 31.695 86.859 74.648 99.844v54.316c0.03125 7.957 3.2227 15.574 8.8711 21.18 5.6484 5.6016 13.289 8.7344 21.246 8.7031 7.9141-0.03125 15.5-3.1875 21.098-8.7852 5.5977-5.5977 8.7539-13.184 8.7852-21.098v-54.258c42.988-12.926 74.648-52.906 74.648-99.902 0-57.371-47.141-104.53-104.53-104.53zm0 60c25.035 0 44.531 19.656 44.531 44.531s-19.496 44.297-44.531 44.297c-25.035 0-44.766-19.422-44.766-44.297s19.73-44.531 44.766-44.531z" fill="#fff" fill-rule="evenodd"/>
</svg>
