<?xml version="1.0" encoding="UTF-8"?>
<svg width="1200pt" height="1200pt" version="1.1" viewBox="0 0 1200 1200" xmlns="http://www.w3.org/2000/svg">
 <g fill="#fff">
  <path d="m709.69 466.88 468.75 377.81c12.188-16.875 20.625-37.5 20.625-59.062v-637.5c0-22.5-9.375-42.188-20.625-59.062z"/>
  <path d="m1092.2 46.875h-993.75c-20.625 0-40.312 5.625-57.188 15.938l554.06 447.19 554.06-447.19c-15.938-10.312-35.625-15.938-57.188-15.938z"/>
  <path d="m483.75 466.88-466.88-378.75c-12.188 16.875-16.875 37.5-16.875 59.062v637.5c0 22.5 4.6875 42.188 16.875 59.062z"/>
  <path d="m584.06 549.38-72.188-59.062-470.62 381.56c15.938 11.25 35.625 18.75 57.188 18.75h216.56c10.312 145.31 132.19 260.62 280.31 260.62s270-115.31 280.31-260.62h216.56c21.562 0 41.25-7.5 57.188-18.75l-469.69-381.56-72.188 59.062c-3.75 2.8125-7.5 3.75-12.188 3.75-3.75 0-7.5-0.9375-11.25-3.75zm11.25 564.38c-129.38 0-236.25-102.19-242.81-229.69v-2.8125-10.312c0-134.06 109.69-243.75 243.75-243.75s242.81 109.69 243.75 243.75v10.312 1.875c-8.4375 128.44-114.38 230.62-244.69 230.62z"/>
  <path d="m717.19 853.12h-98.438v-104.06c0-10.312-8.4375-18.75-18.75-18.75s-18.75 8.4375-18.75 18.75v104.06h-106.88c-10.312 0-18.75 8.4375-18.75 18.75s8.4375 18.75 18.75 18.75h106.88v101.25c0 10.312 8.4375 18.75 18.75 18.75s18.75-8.4375 18.75-18.75v-101.25h98.438c10.312 0 18.75-8.4375 18.75-18.75s-8.4375-18.75-18.75-18.75z"/>
 </g>
</svg>
