<?xml version="1.0" encoding="UTF-8"?>
<svg width="1200pt" height="1200pt" version="1.1" viewBox="0 0 1200 1200" xmlns="http://www.w3.org/2000/svg">
 <path d="m841.88 788.62c59.625-71.625 95.625-163.5 95.625-263.62 0-227.62-184.88-412.5-412.5-412.5s-412.5 184.88-412.5 412.5 184.88 412.5 412.5 412.5c100.12 0 192.38-36 263.62-95.625l234.75 234.75c7.5 7.5 16.875 10.875 26.625 10.875s19.125-3.75 26.625-10.875c14.625-14.625 14.625-38.25 0-52.875l-234.75-234.75zm-654.38-263.62c0-186 151.5-337.5 337.5-337.5s337.5 151.5 337.5 337.5-151.5 337.5-337.5 337.5-337.5-151.5-337.5-337.5z" fill="#fff"/>
</svg>
