<?xml version="1.0" encoding="UTF-8"?>
<svg width="1200pt" height="1200pt" version="1.1" viewBox="0 0 1200 1200" xmlns="http://www.w3.org/2000/svg">
 <path d="m872.55 377.25c54.844 26.598 105.66 51.242 141.94 75.895 36.738 24.961 88.992 70.055 89.07 145.6 0.085937 75.539-52.07 120.75-88.754 145.79-36.219 24.73-86.984 49.48-141.77 76.199l-485.21 236.71c-33.473 16.34-67.906 33.156-97.207 42.465-30.539 9.6992-87.719 21.926-140.07-17.121-52.352-39.043-56.941-97.336-56.348-129.38 0.56641-30.734 6.8594-68.535 12.98-105.28l19.039-114.53c6.6328-39.93 9.9531-59.895 23.941-71.75 13.992-11.855 34.227-11.855 74.703-11.855h375.14c27.613 0 50-22.387 50-50s-22.387-50-50-50h-374.86c-40.441 0-60.66 0-74.645-11.84-13.984-11.844-17.32-31.785-23.984-71.676l-19.199-114.86c-6.1445-36.684-12.465-74.434-13.059-105.14-0.62109-32.031 3.9219-90.258 56.16-129.34 52.242-39.086 109.38-27.012 139.93-17.379 29.297 9.2344 63.73 25.953 97.188 42.199z" fill="#fff" fill-rule="evenodd"/>
</svg>
