<?xml version="1.0" encoding="UTF-8"?>
<svg width="1200pt" height="1200pt" version="1.1" viewBox="0 0 1200 1200" xmlns="http://www.w3.org/2000/svg">
 <path d="m1100 350h-150l50-187c4.6445-17.863-0.59375-36.848-13.742-49.801-13.148-12.953-32.207-17.91-50-13-17.793 4.9102-31.613 18.938-36.258 36.801l-55.5 213h-355l50-187c3.9727-12.961 2.5117-26.984-4.0469-38.848-6.5625-11.867-17.66-20.559-30.75-24.086s-27.055-1.5859-38.688 5.375c-11.633 6.9648-19.938 18.355-23.016 31.559l-57 213h-186c-17.863 0-34.371 9.5312-43.301 25-8.9336 15.469-8.9336 34.531 0 50 8.9297 15.469 25.438 25 43.301 25h159l-80.5 300h-178.5c-17.863 0-34.371 9.5312-43.301 25-8.9336 15.469-8.9336 34.531 0 50 8.9297 15.469 25.438 25 43.301 25h150l-50 187c-4.6445 17.863 0.59375 36.848 13.742 49.801 13.148 12.953 32.207 17.91 50 13 17.793-4.9102 31.613-18.938 36.258-36.801l55.5-213h355l-50 187c-3.9727 12.961-2.5117 26.984 4.0469 38.848 6.5625 11.867 17.66 20.559 30.75 24.086s27.055 1.5859 38.688-5.375c11.633-6.9648 19.938-18.355 23.016-31.559l57-213h186c17.863 0 34.371-9.5312 43.301-25 8.9336-15.469 8.9336-34.531 0-50-8.9297-15.469-25.438-25-43.301-25h-159l80.5-300h178.5c17.863 0 34.371-9.5312 43.301-25 8.9336-15.469 8.9336-34.531 0-50-8.9297-15.469-25.438-25-43.301-25zm-362.5 400h-355.5l80.5-300h355z" fill="#fff"/>
</svg>
