<?xml version="1.0" encoding="UTF-8"?>
<svg width="1200pt" height="1200pt" version="1.1" viewBox="0 0 1200 1200" xmlns="http://www.w3.org/2000/svg">
 <path d="m1070.1 279.86c-34.633-33.273-80.668-55.086-132.64-54.859h-675c-103.28 0.10938-187.39 84.223-187.5 187.5v375c0.10938 103.28 84.223 187.39 187.5 187.5h675c103.28-0.10938 187.39-84.223 187.5-187.5v-375c0.22266-51.977-21.586-98.008-54.859-132.64zm-267.11 320.14 235.7-235.7c7.0195 14.664 11.273 30.883 11.273 48.199v375c0 17.316-4.2539 33.535-11.273 48.199zm134.47-300c17.316 0 33.535 4.2539 48.199 11.273l-359.33 359.33c-14.539 14.539-38.195 14.539-52.734 0l-359.33-359.33c14.664-7.0195 30.883-11.273 48.199-11.273zm-776.23 535.7c-7.0195-14.664-11.273-30.883-11.273-48.199v-375c0-17.316 4.2539-33.535 11.273-48.199l235.7 235.7zm101.23 64.301c-17.316 0-33.535-4.2539-48.199-11.273l235.7-235.7 70.605 70.605c21.242 21.238 49.422 32.941 79.395 32.941s58.152-11.699 79.395-32.941l70.605-70.605 235.7 235.7c-14.664 7.0195-30.883 11.273-48.199 11.273z" fill="#fff"/>
</svg>
