<?xml version="1.0" encoding="UTF-8"?>
<svg width="1200pt" height="1200pt" version="1.1" viewBox="0 0 1200 1200" xmlns="http://www.w3.org/2000/svg">
 <g fill="#fff">
  <path d="m1004.5 1111.7 27.188-126.31c19.172-89.051-2.6484-180.77-59.883-251.64-57.234-70.863-142.3-111.51-233.39-111.51h-276.91c-91.09 0-176.16 40.648-233.39 111.51-57.234 70.867-79.055 162.59-59.883 251.64l27.188 126.31c3.5625 16.582 18.223 28.422 35.191 28.422l738.7 0.003906c16.969 0 31.629-11.844 35.191-28.426z"/>
  <path d="m346.18 313.73c0 139.96 113.86 253.82 253.82 253.82s253.82-113.86 253.82-253.82c0-139.96-113.86-253.82-253.82-253.82s-253.82 113.87-253.82 253.82z"/>
 </g>
</svg>
