<?xml version="1.0" encoding="UTF-8"?>
<svg width="1200pt" height="1200pt" version="1.1" viewBox="0 0 1200 1200" xmlns="http://www.w3.org/2000/svg">
 <path d="m469.86 583.03s-231.2-21.613-109.77-164.81c121.37-143.18 110.3-159.54 110.3-159.54s60.949-192.07 77.508-111.86c16.441 80.219 130.04 272.84 130.04 272.84s-0.28906 17.219 17.652 8.6523c17.855-8.6172 35.543-10.031 80.941-58.141 45.457-48.227 109.85-11.82 109.85-11.82s59.484-20.531 66.227-18.637c6.7578 1.9062-46.836 30.457-53.039 39.648-6.2383 9.1328-38.941 92.746-37.273 115.98 1.5859 23.195-37.094 83.242-48.121 86.496 0 0 106.34 55.523 126.32 103.89 0 0 107.75 63.168 121.75 113.58 14.074 50.34 227.95 188.89 93.59 245.64-134.27 56.797-337.36-52.379-352.34-63.828-14.867-11.484-190.18-106.49-249.9-114.19-59.652-7.7539-87.973-68.508-48.66-140.24 0 0-62.699-0.44531-73.512 5.6172-10.848 6.0469-171.04 161.06-183.38 169.44-12.406 8.3242-161.3 155.61-218.88 50.219-57.637-105.49 80.855-144.67 80.855-144.67s230.99-99.551 267.65-132.88c36.637-33.312 92.172-91.395 92.172-91.395z" fill="#fff"/>
</svg>
